<?xml version="1.0" standalone="no"?><!DOCTYPE svg PUBLIC "-//W3C//DTD SVG 1.1//EN" "http://www.w3.org/Graphics/SVG/1.1/DTD/svg11.dtd"><svg t="1584104579556" class="icon" viewBox="0 0 1024 1024" version="1.1" xmlns="http://www.w3.org/2000/svg" p-id="4919" xmlns:xlink="http://www.w3.org/1999/xlink" width="64" height="64"><defs><style type="text/css"></style></defs><path d="M285.6 659h490.7l113-393.3c3.8-13.2 1.9-25.7-5.2-35.2-7-9.3-18.3-14.5-31.6-14.5h-7.6c-18.2 34.7-76.8 111.5-255.5 171.4-197.6 66.2-352.4 47.9-399.3 39.7l32 187.1c9.2 25.3 36.8 44.8 63.5 44.8zM299.7 812.5c-25 0-45.4 20.5-45.4 45.7 0 25.2 20.3 45.7 45.4 45.7 25 0 45.4-20.5 45.4-45.7-0.1-25.2-20.4-45.7-45.4-45.7zM739.1 812.5c-25 0-45.4 20.5-45.4 45.7 0 25.2 20.3 45.7 45.4 45.7 25 0 45.4-20.5 45.4-45.7-0.1-25.2-20.4-45.7-45.4-45.7z" fill="#eb3068" p-id="4920"></path><path d="M291.7 216h20.2c10.2 0 18.4-8.2 18.4-18.4s-8.2-18.4-18.4-18.4h-20.2c-10.2 0-18.4 8.2-18.4 18.4s8.2 18.4 18.4 18.4z" fill="#eb3068" p-id="4921"></path><path d="M913.5 208.4c-13.9-18.5-36.2-29.1-61-29.1h-467c-10.2 0-18.4 8.2-18.4 18.4s8.2 18.4 18.4 18.4H852.4c13.4 0 24.6 5.1 31.6 14.5 7.2 9.5 9 22 5.2 35.2L776.3 659H285.6c-26.7 0-54.4-19.6-63.5-44.8l-32-187.1-55.5-324.7c-1.7-10-11.3-16.8-21.2-15-10 1.7-16.8 11.2-15 21.2L186.1 622c0.2 0.9 0.4 1.9 0.7 2.8 13.7 40.5 56.2 71.1 98.9 71.1h504.5c8.2 0 15.4-5.4 17.7-13.3L924.7 276c6.9-24.3 2.9-48.9-11.2-67.6z" fill="#eb3068" p-id="4922"></path><path d="M226.6 216c10.2 0 18.4-8.2 18.4-18.4s-8.2-18.4-18.4-18.4h-0.6c-10.2 0-18.1 8.2-18.1 18.4s8.5 18.4 18.7 18.4zM299.7 721.5c-60.2 0-109.1 49.3-109.1 109.8s48.9 109.8 109.1 109.8 109.1-49.3 109.1-109.8c0-60.6-49-109.8-109.1-109.8z m0 182.7c-39.9 0-72.3-32.7-72.3-73 0-40.2 32.4-73 72.3-73s72.3 32.7 72.3 73-32.5 73-72.3 73zM739.1 721.5c-60.2 0-109.1 49.3-109.1 109.8s48.9 109.8 109.1 109.8 109.1-49.3 109.1-109.8c0-60.6-48.9-109.8-109.1-109.8z m0 182.7c-39.9 0-72.3-32.7-72.3-73 0-40.2 32.4-73 72.3-73s72.3 32.7 72.3 73-32.4 73-72.3 73z" fill="#eb3068" p-id="4923"></path></svg>